<svg xmlns="http://www.w3.org/2000/svg"><symbol id="brachiosaurus" viewBox="0 0 256 256"><path d="M58.2 168.3a32 32 0 0 0-7.6.9c0 .3.3.6.8 1l2 1.1 2.6 1 2.8.9 2.4.6 1.4.2h2.1l2.5-.4 2.4-.9a4.4 4.4 0 0 0 1.7-1.5A27.2 27.2 0 0 0 65 169a30.7 30.7 0 0 0-6.8-.7z"/><path d="M126.5 1C56.9 1 .5 58.3.5 129s56.4 128 126 128 126-57.3 126-128S196.1 1 126.5 1zm82.2 70.6v.3a7.3 7.3 0 0 1-.1 1.4l-.3 2.1-.3 2.1-.2 1.4a10 10 0 0 0-.9 1.8l-.6 2-.6 2a16.3 16.3 0 0 1-.7 2 31.1 31.1 0 0 1-1.7 3.1 21.4 21.4 0 0 0-1.6 3.1l-19.8 27.9-.2.6-.3.3-.3.3-.4.5-1.6 2.3-2 2.9-2.2 3.3c-.7 1.1-1.4 2.2-2 3.3a24.7 24.7 0 0 0-1.4 3 7 7 0 0 0-.5 2.3c0 .3-.2.5-.2.7s.2.4.2.7c-.2 0-.3.1-.3.4s.1.4.3.4V152a2.8 2.8 0 0 1-.2 1c-.2.4-.2.8-.4 1.2s-.5.8-.6 1.2-.4.8-.4 1.1v1.7a.4.4 0 0 1 0 .4l-.4.8-.7.8c-.2.3-.5.4-.5.4v.4c0 .1.7.2.8.4s.9.3.9.4v2.8a23.8 23.8 0 0 1-.6 3.5c-.2 1.2-.6 2.4-.8 3.5s-.5 2.4-.7 3.5a23.2 23.2 0 0 0-.3 3.5 62.8 62.8 0 0 0 .3 6.3 42.8 42.8 0 0 0 1.1 6.2 32.5 32.5 0 0 0 2.1 5.8 23.6 23.6 0 0 0 3.4 5.3l-1.3.8-1.7.7-1.7.5h-1.9l-1-.3-1.2-.3-1-.2-.7-.2-.7-.3-.6-.5a1.4 1.4 0 0 1-.3-.7 30.5 30.5 0 0 0 .1-4.1c0-1.4-.1-2.9-.3-4.3s-.3-2.9-.5-4.3-.4-2.8-.5-4.1l-.2-.6a1.5 1.5 0 0 0-.2-.6c.1-1.1.1-2.3.1-3.7s0-2.7-.1-4.1a26.7 26.7 0 0 0-.6-4 11.7 11.7 0 0 0-1.4-3.4 3.4 3.4 0 0 0-1.4 1.8 22.5 22.5 0 0 0-.8 2.7c-.2 1-.2 1.9-.4 2.9s-.9 1.8-.9 2.4v7.6c0 2.9-.2 5.6-.1 8.3s.2 5.5.6 8.3l.4.3.8.6.8.7a.9.9 0 0 1 .3.6c0 .2-.3.5-.8.8l-1.8.9-2 .8-1.3.4h-.2l-4.7-2.6a.5.5 0 0 1-.2-.5v-.6a22.9 22.9 0 0 1 0-3 22.2 22.2 0 0 0 .1-3 26.9 26.9 0 0 0-.3-3.8c-.2-1.3-.4-2.5-.6-3.7s-.4-2.5-.6-3.8a30.5 30.5 0 0 1-.3-3.9c0-1.2 0-2.4.1-3.3s.2-1.9.3-2.8l.5-2.8.7-3.2a1.4 1.4 0 0 0 0-.7 4.2 4.2 0 0 1-.1-.7l-1.9.2-1.8.5-1.9.6-1.9.5-1.3.2h-2l-1.1-.2h-1.8c-1.8 0-3.5.1-5.2 0s-3.4-.2-5.2-.2h-2.4a4 4 0 0 0-2.3.9v5.2c0 1.7-.1 3.4-.2 5.1l-.3 5.1c-.1 1.7-.1 3.5-.1 5.2v5.1c0 .6.7 1.1 1.1 1.7l1.4 1.7 1.2 1.8a3.5 3.5 0 0 1 .5 1.8v.4a9 9 0 0 1-4 .4c.1.5 0 .7-.2.8h-2.7l-2.2-.2a4.2 4.2 0 0 1-1.8-.9 2.2 2.2 0 0 1-.8-1.9 7.1 7.1 0 0 1 .1-1.3l.3-1.3c.1-.4.2-.9.3-1.3a6.5 6.5 0 0 0 .1-1.4 26.6 26.6 0 0 0-.3-3.9c-.2-1.2-.4-2.4-.7-3.6s-.5-2.7-.8-3.8a27.7 27.7 0 0 1-.7-4h-.4c-.2 0-.4.8-.5.9l-.4.7-.3.5-1.5 2.3-1.4 2.3a16.9 16.9 0 0 0-1.1 2.4 8.7 8.7 0 0 0-.4 2.7 4.4 4.4 0 0 0 .3 1.6l.7 1.5.7 1.2.3.6a.9.9 0 0 1-.4.7l-1 .5-1.3.3h-4.6a2.1 2.1 0 0 1-1.1-.4 2.2 2.2 0 0 1-.7-.9 9.6 9.6 0 0 1-.5-1.6l-.5-1.6a5.2 5.2 0 0 1-.3-1.7 3.5 3.5 0 0 1 .4-1.5l.9-1.6 1.1-1.6a7.3 7.3 0 0 0 .8-1.5l2.4-5.9 2.4-5.9.5-.8.5-.7.4-.8a1.8 1.8 0 0 0 .2-.8c0-.4-.1-.6-.3-.6h-1.3l-8.9 2.5a2.7 2.7 0 0 1-1.3.5l-1.8.4-1.6.6a1.1 1.1 0 0 0-.7 1.1 1.5 1.5 0 0 0 .3.9l.6.7.8.6.7.6-.4.4-1.3-.9-1.4-.8-1.5-.6-1.5-.2a14.3 14.3 0 0 0-3.8.5l-3.6 1.6-4.1 1.2a16.8 16.8 0 0 1-4.2.5l-3.4-.4-4.8-1.1-5.4-1.8a37.2 37.2 0 0 1-4.9-2.3 15.7 15.7 0 0 1-3.6-2.7 4.3 4.3 0 0 1-1.4-3 4.5 4.5 0 0 1 1.1-3.3A6.3 6.3 0 0 1 48 166a13.8 13.8 0 0 1 3.5-.2c1.2-.1 2.3.3 3.3.3h3.9a2.5 2.5 0 0 1 1.3-.3l2.3.2 2.5.3 2 .3 1.9.5 1.8.9 1.8.8a6 6 0 0 0 2 .3 8.6 8.6 0 0 0 3.9-1.1 30.2 30.2 0 0 0 4.1-2.6l3.9-3.1 3.2-2.7 1.8-1.3 1.8-1.1 1.7-1.3a8 8 0 0 0 1.5-1.7 38 38 0 0 0 2.6-4.5 31.6 31.6 0 0 1 2.7-4.5 7 7 0 0 1 1.3-1.3l1.5-1 1.6-.9 1.6-.9 3.6-2.7 3.4-2.9 3.3-3 3.4-2.9a21.2 21.2 0 0 1 3.7-2.2l3.9-1.9 2.5-1.3 2.4-1.3 2.5-1.2a12.3 12.3 0 0 1 2.6-.8l22.2-3.3a10.6 10.6 0 0 0 3.5-1.1 19.9 19.9 0 0 0 3.3-2.2 32 32 0 0 0 3.2-2.9l2.9-3.3 2.6-3.2 2.3-2.8 7.6-9 .3-.3.5-.6.5-.5.3-.3 2-3.3.2-.2.4-.2.4-.2.2-.2.4-.4.4-.4 1.2-1.7 1.4-2 1.3-2 1-1.7a13 13 0 0 0 .9-2l.7-2.1c.2-.7.5-1.5.8-2.2s1-1.5 1-2.2v-6a5.3 5.3 0 0 0-1.1-3.1 11.6 11.6 0 0 0-2.6-2.6 13 13 0 0 0-3.3-1.8 9.1 9.1 0 0 0-3.2-.7 24.2 24.2 0 0 0-5.8.7 12.1 12.1 0 0 0-5.1 2.7l-1.2 1.3-1.6 1.9-1.7 2-1.8 1.9-1.9 1.3a3.4 3.4 0 0 1-1.8.5 1.5 1.5 0 0 1-1.2-.5 1.6 1.6 0 0 1-.5-1.1v-.9l.2-.8v-1.3a5.3 5.3 0 0 0-.2-1.7l-.6-1.4-.6-1.2a3.2 3.2 0 0 1-.2-1.3 1.1 1.1 0 0 0 .8-.3l.4-.6.4-.8a1.7 1.7 0 0 1 .8-.6h2.8a1.1 1.1 0 0 0 .9-.4l.7-.7h.4l.2.4.2.4a.5.5 0 0 1 .4-.4l.6-.4 1.1-.7 1.3-.8 1.3-.8 1.1-.7.6-.4 2.1-1.3 1.8-.6 1.9-.2h6.4l1.5.5 1.5.3 1.5.3 1.5.5a14.9 14.9 0 0 1 4.5 3 17.2 17.2 0 0 1 3.2 4.2 19.8 19.8 0 0 1 1.7 5.1 24.6 24.6 0 0 1 .5 5.5v1.8c0 .2.5.6.5.8z"/></symbol><symbol id="micropachycephalosaurus" viewBox="0 0 256 256"><path d="M132.5 152c-.3 0-.4.2-.4.6h-.1c-.3 0-.5.2-.5.5s.2.6.5.6.4-.2.4-.6h.1a.4.4 0 0 0 .5-.5c0-.4-.2-.6-.5-.6zm1.4-.8a2.4 2.4 0 0 0-.9.8h.3a2.2 2.2 0 0 0 1.1-.3 2.3 2.3 0 0 0 .8-.8h-.2a2.1 2.1 0 0 0-1.1.3zm3.1-2.6c-.3 0-.4.2-.4.6h-.1c-.3 0-.4.2-.4.6h-.1c-.3 0-.5.2-.5.6s.2.6.5.6.5-.2.5-.6h.1c.3 0 .5-.2.5-.6h.1c.3 0 .5-.2.5-.6s-.4-.6-.7-.6zm23-6a14.1 14.1 0 0 1-1.3 1.4 1.8 1.8 0 0 0 .8 1.1l1.1.2a2.1 2.1 0 0 0 1.4-.5 4.8 4.8 0 0 0 1.1-1.2 10.4 10.4 0 0 0 .8-1.5c.2-.5.4-1.2.5-1.2H161c-.2 0-.5 1.1-1 1.7z"/><path d="M128 .7C58.4.7 2 58 2 128.7s56.4 128 126 128 126-57.3 126-128S197.6.7 128 .7zm94.5 75.9l-1.5.4h-3.7a41.6 41.6 0 0 0-5.2 1.3 15.7 15.7 0 0 0-3.6 1.6 9.3 9.3 0 0 0-2.5 2.2 14 14 0 0 0-1.7 3 36.5 36.5 0 0 0-1.5 3.9l-1.6 5.1-1.2 3.5c-.4 1.1-.8 2.2-1.2 3.2s-.9 2.1-1.4 3.2l-1.7 3.3a33.6 33.6 0 0 1-2.6 4.1L190 115l-3.1 3.6c-1.1 1.2-2.1 2.5-3.1 3.9a10.6 10.6 0 0 0-1.4 2.7c-.3.9-.6 1.8-1 2.6a8.5 8.5 0 0 1-1.3 2.2 5.5 5.5 0 0 1-2.5 1.6l-1.3.6-2 .7-2 .6-1.3.4a3 3 0 0 1 .2 2 2 2 0 0 1-.9.9l-1.2.6a1.7 1.7 0 0 0-.9 1l-2.2 6.8a2.7 2.7 0 0 1-1 1.5 5.8 5.8 0 0 1-1.8.9 11 11 0 0 1-2 .2 14.4 14.4 0 0 1-1.8-.1h-.8c-.5 0-.9.2-1.1.1s-.4-.3-.4-.9a.6.6 0 0 1 .1-.4l.2-.3.2-.3a.7.7 0 0 0 .1-.4.5.5 0 0 1 0-.2 22.9 22.9 0 0 0-3.4 1.7l-3.3 2.1-3.3 2.2-3.3 2-.9.5-1.2.6-1 .8a1.5 1.5 0 0 0-.4 1.1v.3a1.6 1.6 0 0 1 0 .2l1.8 1.6 1.9 1.7 2 1.6 2.1 1.3 1.8.7 1.9.5 1.9.7a7.3 7.3 0 0 1 1.7.9 8.3 8.3 0 0 1 1.3 1.4l1.1 1.5 1.1 1.5a6.1 6.1 0 0 0 1.5 1.3l1.7.6 2.1.7a6.2 6.2 0 0 1 1.8 1 2.1 2.1 0 0 1 .8 1.7v.5l-5.6 1.2-1.1.4a2.3 2.3 0 0 1-1.2.3h-.6l-1.1-.6-1.7-1-1.7-1-1-.8-.2-.2-.3-.5-.3-.6-.2-.5-2.2-4.5-1.1-.5-1.8-.8-2.1-.9-2.1-1-1.8-.8-1.1-.6-2.8-1.6a16.1 16.1 0 0 1-2.6-2.2 13.3 13.3 0 0 1-2-2.7 8.3 8.3 0 0 1-1-3.2l-.6.2-.6.3-.9.7-1.7 1.2-2.1 1.4-2.1 1.4-1.7 1.1-.9.5-5.9 3.6a23.1 23.1 0 0 0-4.5 3.4 17.4 17.4 0 0 0-3.6 4.5c-.9 1.7-.7 3.9-2.4 6.7v.2a3.5 3.5 0 0 1 0 .4v.9a10.1 10.1 0 0 0 1.1 4.5 7.9 7.9 0 0 0 2.1 2.6 8.3 8.3 0 0 0 2.6 1.4l2.5 1a5.6 5.6 0 0 1 1.9 1 5.2 5.2 0 0 1 .8 2h-13.4l-.2-.4c-.1-.2-.2-.1-.4-.2l-.5-.2-.6-.3a3 3 0 0 1-1.2-1.5 8.9 8.9 0 0 1-.5-2.2 16.2 16.2 0 0 1 .2-2.3c0-.8.3-1.5.3-2.1V182a7.1 7.1 0 0 1 .3-1.8c.2-.8.3-1.7.6-2.7s.5-2.1.8-3.2l.8-3.2.7-2.7.4-1.8a15.5 15.5 0 0 1 .7-2 13.3 13.3 0 0 1 1-1.9 14.2 14.2 0 0 0 4.5-2.6 27.6 27.6 0 0 0 3.2-3.3l2.9-3.5a15.3 15.3 0 0 1 3.4-3.1l1.4-.7 2-.8 2.3-1 2.1-1.1a8 8 0 0 0 1.6-1.3 2.4 2.4 0 0 0 .6-1.6v-1.3a1.9 1.9 0 0 0-.6-1.2l-.8-.3-1.2-.5-1.2-.6-.8-.3a10.1 10.1 0 0 1-2-1.2l-2.6-1.9c-.9-.7-1.7-1.1-2.5-1.6a3.1 3.1 0 0 0-1.7-.6h-7.8c-5.9 0-11.8-.1-17.5.1s-11.6.2-17.5.2c-4.4 0-8.6-.2-12.8-.4a106.3 106.3 0 0 1-12.3-1.4 84 84 0 0 1-11.9-3 68.3 68.3 0 0 1-11.7-5.1l-1.4-.7-1.6-1a6 6 0 0 1-1.3-1.3 2.6 2.6 0 0 1-.5-1.6 6.8 6.8 0 0 1 2.1.4l2.4.9 2.2 1 1.5.6 4.6 1.7 5 1.5 5.1 1a32.9 32.9 0 0 0 4.8.4H73l2.5-.4 3.3-.5 3.6-.6 3.4-.6 2.6-.6 6.8-1.4 7.3-1.6c2.4-.6 4.8-1.3 7.2-2.1a46.9 46.9 0 0 0 6.6-2.8l3.8-1.8 3.8-1.6 3.9-1.3a31.3 31.3 0 0 1 4.2-.9h2.8l1.8-.2 1-.2 1.9-.3 3.3-.7 4-.9 4-.9c1.2-.3 2.4-.9 3.3-1.1s1.6-.7 1.9-.7h6.5c2.7 0 5.3.5 7.9.7s5.1.5 7.8.5a9.8 9.8 0 0 0 5-1.3 18.4 18.4 0 0 0 4.5-3.5 33 33 0 0 0 3.9-5 65.3 65.3 0 0 0 3.2-5.7c1-1.9 1.8-3.8 2.5-5.6s1.3-3.4 1.8-4.8.8-2.4 1.1-3.5l1-3.2a16.1 16.1 0 0 1 1.2-2.6 7.3 7.3 0 0 1 1.8-2 7.8 7.8 0 0 1 2.6-1.6 12.2 12.2 0 0 1 3.8-.8h3c.8 1.7 1.7.9 3 1.3a36.8 36.8 0 0 1 3.5 1.5 15 15 0 0 1 3 1.8 2.9 2.9 0 0 1 1.2 2.2 2.1 2.1 0 0 1-.4 1.4 3.1 3.1 0 0 1-1.4.5z"/></symbol><symbol id="velociraptor" viewBox="0 0 256 256"><path d="M128-.3C58.4-.3 2 57 2 127.7s56.4 128 126 128 126-57.3 126-128S197.6-.3 128-.3zm109 116.8h-7.3c-3 0-6-.2-9.1-.5l-9-1-9-1c-3-.3-6-.5-9.1-.5a131.8 131.8 0 0 0-16.1 1 72.1 72.1 0 0 0-15.7 3.7l-30.3 11.1a2.5 2.5 0 0 0-1.2 1.6 20.8 20.8 0 0 0-.8 2.8l-.6 2.9a7.1 7.1 0 0 1-.6 2 3.1 3.1 0 0 0 1.4 1.3l2.4 1.2 2.9 1.2a17.9 17.9 0 0 1 2.7 1.5 8.5 8.5 0 0 1 2.1 1.9 3.9 3.9 0 0 1 .8 2.5 1.7 1.7 0 0 1-.5 1.2 4.9 4.9 0 0 1-1.2.9l-1.6.7-1.6.8a4.7 4.7 0 0 0-1.2 1.1 2.4 2.4 0 0 0-.5 1.5 3.8 3.8 0 0 0 .8 2.6 7.8 7.8 0 0 0 1.9 1.6l2.4 1.3a7.4 7.4 0 0 1 2.1 1.7 17.6 17.6 0 0 1 2 3.5 24 24 0 0 1 1.3 3.7 35.8 35.8 0 0 1 .8 3.9c.2 1.3.1 2.7.3 4l1.3 1.3v7h.8l1 .2 1 .2.6.2c0 .5.1.7.1.9a6.9 6.9 0 0 1-.1 1 7.2 7.2 0 0 1-.4 1.3 3.2 3.2 0 0 1-.6.9 1 1 0 0 1-.9.3H143c-.2 0-.5-.5-1-.8l-1.5-.9-1.5-.8c-.5-.3-.9-.9-1.2-.9h-6.1a4.8 4.8 0 0 1 .6-3 4.3 4.3 0 0 1 1.6-1.6 6.9 6.9 0 0 1 2.1-.7l2.1-.4a4.9 4.9 0 0 0 1.6-.6 1.5 1.5 0 0 0 .6-1.4 2.8 2.8 0 0 0 0-.3v-.3l-.8-1.8-1.3-2.4a27 27 0 0 0-1.5-2.5 9.4 9.4 0 0 0-1.5-1.8l-1.3-.8-1.8-1-1.7-1.1a2.2 2.2 0 0 1-1-1.1 23.4 23.4 0 0 1-.9-3 21.9 21.9 0 0 0-1.1-3.2 8 8 0 0 0-1.7-2.6 3.9 3.9 0 0 0-2.9-1.1 22.8 22.8 0 0 0-6 .8 26.2 26.2 0 0 0-5.7 2.3 25.8 25.8 0 0 0-4.9 3.5 22.5 22.5 0 0 0-3.9 4.6l-.3.2h-.2v-.2l-.2-.3-.2-.6-.2-.6v-.3h-.3a1.4 1.4 0 0 0-1.1.5 6.7 6.7 0 0 0-.9 1.2l-.8 1.3a3.7 3.7 0 0 1-.8 1 4.4 4.4 0 0 1-.6-1.7 15.3 15.3 0 0 1-.1-1.7 10.6 10.6 0 0 1 .4-2.9l.9-2.8c.3-1 .6-1.6.9-2.6a20.1 20.1 0 0 0 .4-2.8h-4.9c0-1.7.2-1.8.6-2.4a5.8 5.8 0 0 1 1.6-1.6 7 7 0 0 1 2.1-.9l2.1-.3 3 .2 2.9.5 2.9.5 2.9.2h2.3a2.6 2.6 0 0 0-1.7-1.4l-2.5-.5-2.7-.2c-.9-.1-1.6.2-2.2-.2l-3.9-2.2h-.3a13.2 13.2 0 0 0-3.1 0 12.9 12.9 0 0 1-3.1.2 7.2 7.2 0 0 1-3-.7l-2.6-1.4-2.6-1.3a5 5 0 0 0-2.9-.6v6.1l1.6-.2 1-.3.9-.5c.3-.2.4-.4.9-.7l.6-.2v2.8l2-.7c0 .1.2.3.2.5s.1.4.1.5a5.7 5.7 0 0 1-1.3 3.9 21.7 21.7 0 0 1-3.2 2.9 22.2 22.2 0 0 0-4.6-1.3l-4.7-.7V147l-1.7.5-2 1a12.5 12.5 0 0 0-1.9 1.2c-.5.4-.9.8-.9 1.2v7.1a10.1 10.1 0 0 0 2.9-.3l1.8-.6 1.2-.6a2.6 2.6 0 0 1 1.2-.3h.3l.3.7.5 1.3.4 1.3a4.3 4.3 0 0 1 .2 1 5.2 5.2 0 0 1-.4 1.9 7.2 7.2 0 0 1-1.1 1.8 5.7 5.7 0 0 1-1.5 1.4 3.3 3.3 0 0 1-1.8.6H74l-3-.5-3.6-.7a11.8 11.8 0 0 1-3.2-1.3 2.5 2.5 0 0 1-1.4-2.1v-11.9c0-.1.4-.4.9-.8l1.9-1.6 2.4-2.2a26.1 26.1 0 0 0 2.4-2.6 20.6 20.6 0 0 0 1.8-2.7 5.6 5.6 0 0 0 .7-2.6 3.9 3.9 0 0 0-1.2-2.8 11.7 11.7 0 0 0-2.8-2l-3.3-1.4-2.5-.9-1.3-9.2c-.1-.8-.3-1.7-.6-2.7a12 12 0 0 0-1.1-2.8 7.2 7.2 0 0 0-1.8-2.2 4 4 0 0 0-2.6-.9 12.1 12.1 0 0 0-3.6.5 14.6 14.6 0 0 0-3.2 1.5l-1.6 1-2.5 1.5-2.9 1.8-2.9 1.8-2.5 1.7c-.8.4-1.3 1.1-1.6 1.1h-1l-1.7-.2-2.1-.4a3.4 3.4 0 0 1-1.4-.8c-.5-.3-.3-.8-.3-1.4v-1.9c0-.6-.2-.9 0-.9H30a1.1 1.1 0 0 1 0-.4l.2-.8.2-.9a.9.9 0 0 0 0-.5 2.4 2.4 0 0 0-.8-.8l-.9-.5-.7-.7a2.1 2.1 0 0 1-.3-1.3 3.3 3.3 0 0 1 .2-1.2 4.9 4.9 0 0 1 .7-1.2c.3-.4.2-.7.6-.9l.8-.3v.8c0 .5.4 1 .6 1.5a1.2 1.2 0 0 0 1.2.7 1.6 1.6 0 0 0 1.1-.5 5.3 5.3 0 0 0 .9-1.1 10.6 10.6 0 0 0 .6-1.6c.1-.5.3.3.3-1.4H22.5a1.8 1.8 0 0 1-.9-.5l-1-.7-.9-.8a1.5 1.5 0 0 1-.4-1 4.6 4.6 0 0 1 1.1-3.2 7.4 7.4 0 0 1 2.6-1.8 16.6 16.6 0 0 1 3.2-1l2.8-.8 2.2-.9 3.3-1.6 3.3-1.6a9.9 9.9 0 0 1 2.2-1.1h13.4a7.3 7.3 0 0 1 3.8 1 13.3 13.3 0 0 1 3.1 2.5 26.6 26.6 0 0 1 2.5 3.3l2.3 3.3a16.8 16.8 0 0 0 2.3 2.6 3.6 3.6 0 0 0 2.5 1 .8.8 0 0 0 .8-.4.9.9 0 0 1 .8-.4 3.8 3.8 0 0 1 1.5.3l1.5.7 1.5.7a3.8 3.8 0 0 0 1.5.3l4.1-.2 4.1-.5 4.1-.5 4.1-.2a63 63 0 0 1 7.2.4 38 38 0 0 1 7.2 1.6l5 2 5.1 2.2a45.1 45.1 0 0 0 5.2 1.8 20.9 20.9 0 0 0 5.4.7h2.6l12.8-2.7c4.2-.9 8.5-1.7 12.7-2.3s8.5-1.2 12.8-1.6 8.6-.6 13-.6h8.8a39.9 39.9 0 0 1 5 .9l36.1 7.3h11.6c-.8 0-1.8 1-3.1 1.4a17.9 17.9 0 0 1-4.3.4z"/></symbol></svg>